:FULLY-SPECIFIED
:FORCE-ALL-JOINTS-BE-3DOF
:DEGREES
1937
root 6.29132 13.6578 27.9793 1051.25 65.3329 327.25
lfemur -62.2414 11.6757 -5.56365
ltibia 68.4952 0 0
lfoot -3.76251 -1.21763 0
ltoes -33.3184 0 0
rfemur -2.93269 -5.64632 16.7608
rtibia 62.2258 0 0
rfoot -24.6129 -29.1959 0
rtoes -26.9692 0 0
lowerback 12.6285 4.96591 4.02171
upperback -0.908244 7.56551 3.34129
thorax -7.99821 3.60604 -0.138778
lowerneck -0.155113 15.1499 7.31499
upperneck 5.61441 20.6581 -7.22461
head 3.55813 10.2938 -2.69562
lclavicle 7.46729e-15 -1.69476e-14 0
lhumerus 63.7417 -26.9143 55.4476
lradius 36.6115 0 0
lwrist 4.66952 0 0
lhand -12.4031 33.6704 0
lfingers 7.12502 0 0
lthumb 13.6707 67.7844 0
rclavicle 7.46729e-15 -1.69476e-14 0
rhumerus -42.05 22.245 -76.0781
rradius 90.4624 0 0
rwrist -33.1425 0 0
rhand -14.0261 -403.76 0
rfingers 7.12502 0 0
rthumb 12.1033 286.621 0
1938
root 6.22436 13.6618 27.9953 1049.72 65.465 325.709
lfemur -62.3565 11.4848 -5.99727
ltibia 68.3214 0 0
lfoot -3.76696 -1.0769 0
ltoes -33.3456 0 0
rfemur -3.18644 -5.64243 16.9153
rtibia 62.4125 0 0
rfoot -24.7082 -29.2693 0
rtoes -26.9551 0 0
lowerback 12.6556 4.91093 4.01619
upperback -0.903115 7.49483 3.33725
thorax -8.01216 3.57223 -0.127294
lowerneck -0.155923 15.1313 7.311
upperneck 5.56147 20.6316 -7.25873
head 3.5414 10.2807 -2.70986
lclavicle 9.20648e-15 -1.76034e-14 0
lhumerus 64.1221 -27.5197 54.4964
lradius 37.8633 0 0
lwrist 5.75604 0 0
lhand -12.2825 33.6781 0
lfingers 7.12502 0 0
lthumb 13.7873 68.6758 0
rclavicle 9.20648e-15 -1.76034e-14 0
rhumerus -41.5767 22.6351 -75.8626
rradius 90.3422 0 0
rwrist -32.9149 0 0
rhand -13.9253 -403.746 0
rfingers 7.12502 0 0
rthumb 12.2004 286.642 0
1939
root 6.15286 13.6663 28.0128 1048.06 65.5921 324.043
lfemur -62.4744 11.2968 -6.45811
ltibia 68.1406 0 0
lfoot -3.77963 -0.926013 0
ltoes -33.3693 0 0
rfemur -3.45183 -5.63764 17.0835
rtibia 62.5955 0 0
rfoot -24.8136 -29.349 0
rtoes -26.9434 0 0
lowerback 12.6858 4.85153 4.01479
upperback -0.897185 7.41947 3.33514
thorax -8.0269 3.53607 -0.115198
lowerneck -0.158321 15.111 7.3055
upperneck 5.50564 20.6026 -7.29419
head 3.52373 10.2662 -2.72447
lclavicle 1.095e-14 -1.83154e-14 0
lhumerus 64.5292 -28.1296 53.5222
lradius 39.1887 0 0
lwrist 6.82899 0 0
lhand -12.1735 33.6928 0
lfingers 7.12502 0 0
lthumb 13.8925 69.6128 0
rclavicle 1.095e-14 -1.83154e-14 0
rhumerus -41.106 23.0476 -75.6518
rradius 90.2431 0 0
rwrist -32.7183 0 0
rhand -13.8164 -403.729 0
rfingers 7.12502 0 0
rthumb 12.3053 286.667 0
1940
root 6.07665 13.6713 28.0317 1046.28 65.7133 322.248
lfemur -62.5947 11.1122 -6.94659
ltibia 67.9528 0 0
lfoot -3.80097 -0.76443 0
ltoes -33.3893 0 0
rfemur -3.72911 -5.63189 17.2656
rtibia 62.7745 0 0
rfoot -24.9291 -29.4353 0
rtoes -26.9337 0 0
lowerback 12.7189 4.78753 4.01764
upperback -0.89043 7.33923 3.33508
thorax -8.04243 3.49748 -0.102417
lowerneck -0.162437 15.0889 7.29833
upperneck 5.44686 20.5709 -7.33097
head 3.5051 10.2504 -2.73942
lclavicle 1.26938e-14 -1.90836e-14 0
lhumerus 64.9626 -28.7424 52.526
lradius 40.5882 0 0
lwrist 7.88483 0 0
lhand -12.0772 33.715 0
lfingers 7.12502 0 0
lthumb 13.9855 70.5855 0
rclavicle 1.26938e-14 -1.90836e-14 0
rhumerus -40.6394 23.4826 -75.4464
rradius 90.1666 0 0
rwrist -32.5549 0 0
rhand -13.6989 -403.709 0
rfingers 7.12502 0 0
rthumb 12.4184 286.696 0
1941
root 5.99554 13.6769 28.052 1044.37 65.8276 320.319
lfemur -62.7169 10.9319 -7.46314
ltibia 67.7581 0 0
lfoot -3.83145 -0.591613 0
ltoes -33.4051 0 0
rfemur -4.01851 -5.62511 17.4617
rtibia 62.9489 0 0
rfoot -25.0548 -29.5283 0
rtoes -26.9258 0 0
lowerback 12.7551 4.71876 4.02487
upperback -0.882826 7.25391 3.33718
thorax -8.05874 3.45636 -0.0888793
lowerneck -0.1684 15.0647 7.28938
upperneck 5.38507 20.5364 -7.36903
head 3.48548 10.2332 -2.7547
lclavicle 1.44341e-14 -1.99081e-14 0
lhumerus 65.422 -29.3567 51.5092
lradius 42.062 0 0
lwrist 8.92002 0 0
lhand -11.9945 33.7449 0
lfingers 7.12502 0 0
lthumb 14.0654 71.5838 0
rclavicle 1.44341e-14 -1.99081e-14 0
rhumerus -40.1784 23.94 -75.2475
rradius 90.1141 0 0
rwrist -32.427 0 0
rhand -13.5726 -403.685 0
rfingers 7.12502 0 0
rthumb 12.5401 286.729 0
1942
root 5.90935 13.6831 28.0739 1042.32 65.9338 318.251
lfemur -62.8407 10.7567 -8.00818
ltibia 67.5565 0 0
lfoot -3.87152 -0.407021 0
ltoes -33.4163 0 0
rfemur -4.32027 -5.61724 17.6722
rtibia 63.1184 0 0
rfoot -25.1906 -29.628 0
rtoes -26.9195 0 0
lowerback 12.7945 4.64505 4.03661
upperback -0.874349 7.16333 3.34154
thorax -8.07583 3.41261 -0.0745105
lowerneck -0.176338 15.0385 7.2785
upperneck 5.32019 20.4988 -7.40836
head 3.46484 10.2143 -2.77028
lclavicle 1.61668e-14 -2.07888e-14 0
lhumerus 65.9069 -29.9706 50.4729
lradius 43.6106 0 0
lwrist 9.93104 0 0
lhand -11.9265 33.783 0
lfingers 7.12502 0 0
lthumb 14.1311 72.5977 0
rclavicle 1.61668e-14 -2.07888e-14 0
rhumerus -39.7245 24.4199 -75.0558
rradius 90.0869 0 0
rwrist -32.3371 0 0
rhand -13.4371 -403.657 0
rfingers 7.12502 0 0
rthumb 12.6706 286.767 0
1943
root 5.81791 13.6899 28.0971 1040.13 66.0309 316.042
lfemur -62.9657 10.5871 -8.58215
ltibia 67.3479 0 0
lfoot -3.92165 -0.210115 0
ltoes -33.4227 0 0
rfemur -4.6346 -5.60823 17.8972
rtibia 63.2825 0 0
rfoot -25.3365 -29.7345 0
rtoes -26.9146 0 0
lowerback 12.8371 4.56622 4.05301
upperback -0.864976 7.0673 3.34827
thorax -8.09368 3.36616 -0.0592381
lowerneck -0.18638 15.01 7.26557
upperneck 5.25218 20.4579 -7.44893
head 3.44314 10.1938 -2.78613
lclavicle 1.78881e-14 -2.17259e-14 0
lhumerus 66.4172 -30.5826 49.4184
lradius 45.2345 0 0
lwrist 10.9143 0 0
lhand -11.8741 33.8297 0
lfingers 7.12502 0 0
lthumb 14.1818 73.6171 0
rclavicle 1.78881e-14 -2.17259e-14 0
rhumerus -39.2794 24.9225 -74.8724
rradius 90.0864 0 0
rwrist -32.2875 0 0
rhand -13.2918 -403.625 0
rfingers 7.12502 0 0
rthumb 12.8105 286.81 0
1944
root 5.72102 13.6974 28.1219 1037.8 66.118 313.685
lfemur -63.0915 10.4241 -9.18548
ltibia 67.1324 0 0
lfoot -3.98228 -0.000357009 0
ltoes -33.4239 0 0
rfemur -4.96176 -5.598 18.137
rtibia 63.4408 0 0
rfoot -25.4924 -29.848 0
rtoes -26.9108 0 0
lowerback 12.8829 4.4821 4.07419
upperback -0.854682 6.96562 3.35747
thorax -8.11231 3.31689 -0.0429888
lowerneck -0.198656 14.9791 7.25043
upperneck 5.18097 20.4135 -7.4907
head 3.42036 10.1715 -2.80223
lclavicle 1.9594e-14 -2.27194e-14 0
lhumerus 66.9524 -31.1911 48.3468
lradius 46.9339 0 0
lwrist 11.8664 0 0
lhand -11.8382 33.8854 0
lfingers 7.12502 0 0
lthumb 14.2165 74.632 0
rclavicle 1.9594e-14 -2.27194e-14 0
rhumerus -38.8444 25.4477 -74.6982
rradius 90.1142 0 0
rwrist -32.2806 0 0
rhand -13.1366 -403.589 0
rfingers 7.12502 0 0
rthumb 12.9601 286.858 0
1945
root 5.61851 13.7056 28.1482 1035.32 66.194 311.177
lfemur -63.2178 10.2682 -9.81859
ltibia 66.9101 0 0
lfoot -4.05389 0.222793 0
ltoes -33.4194 0 0
rfemur -5.30197 -5.5865 18.3918
rtibia 63.5929 0 0
rfoot -25.6583 -29.9687 0
rtoes -26.9079 0 0
lowerback 12.932 4.39252 4.10029
upperback -0.843443 6.8581 3.36925
thorax -8.13168 3.26473 -0.0256898
lowerneck -0.213293 14.9456 7.23297
upperneck 5.10649 20.3654 -7.53367
head 3.39648 10.1473 -2.81856
lclavicle 2.12805e-14 -2.37693e-14 0
lhumerus 67.5121 -31.7945 47.2595
lradius 48.7094 0 0
lwrist 12.7836 0 0
lhand -11.8199 33.9504 0
lfingers 7.12502 0 0
lthumb 14.2342 75.6324 0
rclavicle 2.12805e-14 -2.37693e-14 0
rhumerus -38.4211 25.9957 -74.5339
rradius 90.1714 0 0
rwrist -32.3186 0 0
rhand -12.9709 -403.548 0
rfingers 7.12502 0 0
rthumb 13.1197 286.911 0
